<svg width="40" height="40" viewBox="0 0 40 40" fill="none" xmlns="http://www.w3.org/2000/svg">
<path fill-rule="evenodd" clip-rule="evenodd" d="M20.0433 3.33334C10.8617 3.33334 3.42001 10.775 3.42001 19.9567C3.42001 27.3 8.18168 33.5317 14.7883 35.7317C15.62 35.8817 15.92 35.37 15.92 34.93C15.92 34.535 15.9067 33.4884 15.9017 32.1034C11.2767 33.1067 10.3 29.8734 10.3 29.8734C9.54668 27.9534 8.45501 27.4417 8.45501 27.4417C6.94668 26.41 8.57001 26.4334 8.57001 26.4334C10.24 26.55 11.115 28.1467 11.115 28.1467C12.5983 30.6867 15.0083 29.9534 15.9517 29.5284C16.1033 28.4534 16.5367 27.72 17.01 27.305C13.32 26.8867 9.44001 25.46 9.44001 19.0883C9.44001 17.2767 10.0883 15.79 11.1467 14.63C10.9783 14.2083 10.4033 12.5167 11.3117 10.23C11.3117 10.23 12.7067 9.78168 15.8817 11.9317C17.2117 11.5633 18.63 11.3783 20.0417 11.3717C21.4567 11.3783 22.8767 11.5633 24.2017 11.9317C27.3783 9.78001 28.7717 10.23 28.7717 10.23C29.68 12.5167 29.11 14.2083 28.9367 14.63C30.0033 15.79 30.6433 17.275 30.6433 19.0883C30.6433 25.4767 26.76 26.88 23.0567 27.2917C23.6483 27.805 24.1817 28.8184 24.1817 30.3684C24.1817 32.5917 24.1617 34.385 24.1617 34.93C24.1617 35.375 24.4583 35.8917 25.3067 35.7284C31.91 33.525 36.6667 27.2984 36.6667 19.9567C36.6667 10.775 29.225 3.33334 20.0433 3.33334Z" fill="#29282C"/>
</svg>
