<svg width="45" height="45" viewBox="0 0 45 45" fill="none" xmlns="http://www.w3.org/2000/svg">
<path fill-rule="evenodd" clip-rule="evenodd" d="M16.7717 3.75C12.6883 3.75 9.375 7.04524 9.375 11.1065C9.375 13.403 10.4346 15.4544 12.0928 16.8034C10.4346 18.1523 9.375 20.2038 9.375 22.5002C9.375 24.7966 10.4345 26.8479 12.0925 28.1969C10.4345 29.5458 9.375 31.5972 9.375 33.8935C9.375 37.9548 12.6883 41.25 16.7717 41.25C20.8552 41.25 24.1684 37.9548 24.1684 33.8935V28.6497C25.3341 29.4126 26.7295 29.8567 28.2283 29.8567C32.3117 29.8567 35.625 26.5615 35.625 22.5002C35.625 20.2038 34.5654 18.1523 32.9072 16.8034C34.5654 15.4544 35.625 13.403 35.625 11.1065C35.625 7.04524 32.3117 3.75 28.2283 3.75H16.7717ZM12.7125 11.1065C12.7125 8.87847 14.5315 7.06937 16.7717 7.06937H20.8309V15.1436H16.7717C14.5315 15.1436 12.7125 13.3345 12.7125 11.1065ZM32.2875 11.1065C32.2875 13.3345 30.4685 15.1436 28.2283 15.1436H24.1691V7.06937H28.2283C30.4685 7.06937 32.2875 8.87847 32.2875 11.1065ZM12.7125 22.5002C12.7125 20.2722 14.5315 18.4631 16.7717 18.4631H20.8309V26.537H16.771L16.7291 26.5371C14.5085 26.5144 12.7125 24.7141 12.7125 22.5002ZM24.1691 22.5002C24.1691 20.2722 25.9881 18.4631 28.2283 18.4631C30.4685 18.4631 32.2875 20.2722 32.2875 22.5002C32.2875 24.7283 30.4685 26.5374 28.2283 26.5374C25.9881 26.5374 24.1691 24.7283 24.1691 22.5002ZM12.7125 33.8935C12.7125 31.6796 14.5085 29.8793 16.7291 29.8566L16.7717 29.8567H20.8309V33.8935C20.8309 36.1215 19.0119 37.9306 16.7717 37.9306C14.5315 37.9306 12.7125 36.1215 12.7125 33.8935Z" fill="#7E57C2"/>
</svg>
