<svg width="45" height="45" viewBox="0 0 45 45" fill="none" xmlns="http://www.w3.org/2000/svg">
<path d="M5.625 5.625H39.375V39.375H5.625V5.625ZM36.6094 31.3256C36.3637 29.7863 35.3606 28.4925 32.3869 27.285C31.3519 26.7994 30.2025 26.4638 29.8575 25.6838C29.73 25.2188 29.7113 24.9675 29.7938 24.6919C30.0056 23.7844 31.0819 23.5125 31.9256 23.7638C32.475 23.9325 32.9813 24.3544 33.2981 25.0312C34.7513 24.0806 34.7513 24.0806 35.7656 23.4487C35.385 22.86 35.1956 22.6031 34.9425 22.35C34.0556 21.36 32.8744 20.8538 30.9563 20.8969L29.9663 21.0225C29.0156 21.255 28.1081 21.7631 27.5606 22.4362C25.9575 24.2512 26.4206 27.4144 28.3612 28.725C30.2794 30.1594 33.0881 30.4744 33.4462 31.8244C33.7837 33.4706 32.2238 33.9975 30.6806 33.8081C29.5425 33.5531 28.9088 32.985 28.2131 31.9294L25.6406 33.4069C25.935 34.08 26.2725 34.3763 26.7787 34.9669C29.2256 37.4344 35.3437 37.3088 36.4406 33.5531C36.48 33.4275 36.7781 32.5631 36.5456 31.2338L36.6094 31.3256ZM23.9775 21.1369H20.8163C20.8163 23.8612 20.8031 26.5706 20.8031 29.3006C20.8031 31.0331 20.8913 32.6231 20.6081 33.1125C20.145 34.0819 18.9469 33.9581 18.405 33.7856C17.8481 33.5119 17.565 33.1313 17.2369 32.5837C17.1487 32.4375 17.0831 32.31 17.0587 32.31L14.4937 33.8925C14.9231 34.7794 15.5494 35.5406 16.3575 36.0244C17.5594 36.7425 19.1738 36.975 20.865 36.5962C21.9675 36.2775 22.9181 35.6231 23.4113 34.6106C24.1313 33.3037 23.9775 31.6987 23.9719 29.9062C23.9869 27.0169 23.9719 24.1256 23.9719 21.2156L23.9775 21.1369Z" fill="#7E57C2"/>
</svg>
