<svg width="27" height="27" viewBox="0 0 27 27" fill="none" xmlns="http://www.w3.org/2000/svg">
<path d="M26.625 26.625H20.7917V16.7812C20.7917 15.2375 19.0593 13.946 17.5155 13.946C15.9717 13.946 14.9583 15.2375 14.9583 16.7812V26.625H9.12502V9.125H14.9583V12.0417C15.9242 10.4792 18.3948 9.47102 20.099 9.47102C23.7032 9.47102 26.625 12.448 26.625 16.0521V26.625ZM6.20833 26.625H0.375V9.125H6.20833V26.625ZM3.29168 0.375C4.90251 0.375 6.20835 1.68084 6.20835 3.29167C6.20835 4.9025 4.90251 6.20833 3.29168 6.20833C1.68085 6.20833 0.375015 4.9025 0.375015 3.29167C0.375015 1.68084 1.68085 0.375 3.29168 0.375Z" fill="#F2F2F2"/>
</svg>
