<svg width="35" height="35" viewBox="0 0 35 35" fill="none" xmlns="http://www.w3.org/2000/svg">
<path d="M32.7531 8.76806C31.6308 9.26587 30.4244 9.60229 29.1586 9.75356C30.4505 8.97898 31.4431 7.75248 31.9103 6.29094C30.7009 7.00823 29.3616 7.52906 27.9359 7.80968C26.7943 6.59331 25.1679 5.83334 23.3677 5.83334C19.9113 5.83334 17.1088 8.63549 17.1088 12.0919C17.1088 12.5824 17.1642 13.0601 17.271 13.5182C12.0694 13.2571 7.45767 10.7655 4.37087 6.97888C3.8321 7.90323 3.52346 8.97833 3.52346 10.1253C3.52346 12.2967 4.62834 14.2124 6.30774 15.3348C5.28189 15.3022 4.31672 15.0207 3.47297 14.5519C3.47238 14.5781 3.47238 14.6042 3.47238 14.6306C3.47238 17.6631 5.62976 20.1925 8.49285 20.7676C7.9677 20.9106 7.41478 20.9872 6.84398 20.9872C6.4407 20.9872 6.04862 20.9478 5.66641 20.8749C6.46288 23.3612 8.77422 25.1708 11.513 25.2212C9.37101 26.9 6.67238 27.9006 3.74005 27.9006C3.23487 27.9006 2.73669 27.8708 2.24707 27.8129C5.01682 29.5887 8.30665 30.625 11.8411 30.625C23.353 30.625 29.6483 21.0882 29.6483 12.8176C29.6483 12.5463 29.6422 12.2763 29.6301 12.0079C30.853 11.1254 31.9141 10.0232 32.7531 8.76806Z" fill="#F2F2F2"/>
</svg>
